<svg width="28" height="31" viewBox="0 0 28 31" xmlns="http://www.w3.org/2000/svg">
    <g fill="#FFF" fill-rule="evenodd">
        <path d="M4.1 29.568c.205 0 .34-.108.402-.323l1.492-6.222 1.546 6.222c.063.215.197.323.403.323H9.3c.207 0 .341-.108.404-.323l2.284-8.507c.036-.143.054-.233.054-.269a.3.3 0 0 0-.309-.309h-1.33c-.224 0-.368.139-.43.417l-1.371 5.98-1.506-5.98c-.062-.278-.206-.417-.43-.417H5.39c-.224 0-.367.139-.43.417l-1.491 5.98-1.385-5.98c-.063-.278-.206-.417-.43-.417H.296c-.09 0-.162.03-.215.087A.314.314 0 0 0 0 20.47c0 .036.031.17.094.403l2.285 8.373c.054.215.188.323.403.323H4.1zm14.474 0c.117 0 .215-.04.296-.121.08-.08.12-.18.12-.296v-1.008a.38.38 0 0 0-.12-.289.415.415 0 0 0-.296-.114H15v-2.03h2.769c.116 0 .215-.04.295-.12.081-.08.121-.18.121-.296V24.3a.402.402 0 0 0-.12-.296.402.402 0 0 0-.296-.121h-2.769v-1.895h3.575c.117 0 .215-.04.296-.121.08-.08.12-.18.12-.296v-.994a.402.402 0 0 0-.12-.296.402.402 0 0 0-.296-.121h-5.107a.402.402 0 0 0-.296.121.402.402 0 0 0-.12.296v8.574c0 .117.04.215.12.296.08.08.18.121.296.121h5.107zm5.027 0c.51 0 .96-.036 1.35-.108.39-.071.755-.201 1.096-.39.34-.187.602-.46.786-.82.184-.358.275-.801.275-1.33v-.12c0-.924-.443-1.591-1.33-2.003.753-.359 1.129-.968 1.129-1.828v-.188c0-.86-.276-1.512-.827-1.956-.55-.443-1.31-.665-2.278-.665h-3.118a.402.402 0 0 0-.296.121.402.402 0 0 0-.12.296v8.574c0 .117.04.215.12.296.081.08.18.121.296.121h2.917zm.067-5.658h-1.452v-1.922h1.452c.161 0 .293.004.396.013.103.01.218.03.343.06a.7.7 0 0 1 .296.142c.071.063.132.15.181.262.05.112.074.253.074.423v.162a.948.948 0 0 1-.1.463.58.58 0 0 1-.303.262c-.135.054-.267.09-.397.108-.13.018-.293.027-.49.027zm.134 3.83h-1.586v-2.002h1.586c.905 0 1.358.322 1.358.967v.08c0 .35-.115.597-.343.74-.229.143-.567.215-1.015.215z"/>
        <path d="M14.32 14.442a1.514 1.514 0 1 1 0 3.028 1.514 1.514 0 0 1 0-3.028zm-5.96-2.524c3.466-3.119 8.757-3.117 12.228-.005l-1.444 1.667a6.96 6.96 0 0 0-9.338.007zm-3.052-3.52c5.212-4.632 13.117-4.634 18.334-.006l-1.446 1.667c-4.389-3.909-11.056-3.907-15.441.008zM2.24 4.86c7.231-6.483 17.226-6.48 24.457.01l-1.45 1.67C19.111 1.114 9.83 1.11 3.69 6.533z" fill-rule="nonzero"/>
    </g>
</svg>
