<svg xmlns="http://www.w3.org/2000/svg" width="37" height="36" viewBox="0 0 37 36">
    <g fill="none" fill-rule="evenodd">
        <g fill="#FFF">
            <g>
                <g>
                    <path d="M18 8c3.258 0 3.643.013 4.93.07 1.188.055 1.835.254 2.264.42.569.222.976.486 1.403.913.426.427.69.833.912 1.403.168.43.366 1.076.42 2.264.06 1.287.071 1.673.071 4.93 0 3.256-.012 3.642-.07 4.929-.055 1.189-.253 1.835-.42 2.265-.222.569-.487.975-.913 1.402-.427.427-.834.692-1.403.912-.43.167-1.076.366-2.264.42-1.287.06-1.672.072-4.93.072-3.257 0-3.642-.013-4.929-.071-1.189-.055-1.835-.254-2.265-.42-.568-.221-.975-.486-1.402-.913-.426-.427-.69-.833-.912-1.402-.168-.43-.367-1.076-.42-2.265-.06-1.287-.072-1.673-.072-4.93 0-3.256.013-3.642.071-4.929.054-1.188.253-1.834.42-2.264.222-.57.487-.976.913-1.403.427-.427.834-.691 1.402-.912.43-.167 1.076-.366 2.265-.42C14.358 8.013 14.743 8 18.001 8zm0 4c3.313 0 6 2.686 6 6s-2.687 6-6 6-6-2.686-6-6 2.687-6 6-6zm0 10c-2.21 0-4-1.79-4-4s1.79-4 4-4 4 1.79 4 4-1.79 4-4 4zm8-10.5c0 .829-.671 1.5-1.5 1.5-.828 0-1.5-.671-1.5-1.5s.672-1.5 1.5-1.5c.829 0 1.5.671 1.5 1.5zM17.702 6c-2.987 0-3.41.016-4.65.072-1.277.058-2.149.262-2.913.558-.788.307-1.458.718-2.125 1.384-.667.667-1.077 1.337-1.384 2.126-.297.763-.5 1.635-.558 2.912C6.014 14.332 6 14.741 6 18c0 3.26.014 3.668.072 4.948.058 1.277.26 2.149.558 2.912.307.79.717 1.459 1.384 2.126.667.667 1.337 1.077 2.125 1.384.764.296 1.636.5 2.913.557 1.28.059 1.689.073 4.948.073 3.26 0 3.667-.014 4.948-.073 1.277-.057 2.149-.26 2.913-.557.788-.307 1.458-.717 2.125-1.384.667-.667 1.077-1.336 1.384-2.126.297-.763.5-1.635.558-2.912.056-1.24.071-1.663.072-4.65v-.595c0-2.988-.016-3.41-.072-4.65-.058-1.278-.26-2.15-.558-2.913-.307-.79-.717-1.459-1.384-2.126-.667-.666-1.337-1.077-2.125-1.384-.764-.296-1.636-.5-2.913-.558-1.24-.056-1.663-.071-4.65-.072h-.596z" transform="translate(-423 -2057) translate(0 2045) translate(423.635 12)"/>
                </g>
            </g>
        </g>
    </g>
</svg>
