<svg xmlns="http://www.w3.org/2000/svg" width="127" height="32" viewBox="0 0 127 32">
    <g fill="none" fill-rule="evenodd">
        <g fill="#FFF" fill-rule="nonzero">
            <g>
                <path d="M125.262 23.083c.188.002.333.051.436.15.102.1.16.213.17.34h-.196c-.022-.096-.066-.173-.131-.229-.066-.056-.157-.085-.275-.085-.144 0-.261.051-.35.155-.09.104-.134.263-.134.476 0 .174.04.316.12.425.08.109.2.163.359.163.145 0 .257-.057.334-.17.04-.062.07-.14.091-.24h.197c-.017.158-.075.29-.173.396-.116.128-.275.192-.473.192-.171 0-.315-.053-.432-.158-.154-.14-.23-.354-.23-.644 0-.22.057-.4.172-.542.125-.154.296-.229.515-.229zm-4.85.042v.177h-.502v1.314h-.204v-1.314h-.503v-.177h1.21zm.473 0l.429 1.26.425-1.26h.288v1.491h-.193v-.967l.001-.065c.002-.07.002-.146.002-.227l-.426 1.259h-.2l-.43-1.26v.047l.003.167.003.122v.922h-.193v-1.49h.29zm1.917 0l-.474 1.491h-.154l.474-1.491h.154zm.393 0l.429 1.26.426-1.26h.288v1.491h-.194v-.88c0-.03 0-.08.002-.152l.001-.227-.425 1.259h-.2l-.43-1.26v.047c0 .037 0 .093.002.167l.004.164v.88h-.194v-1.49h.291zM72.486 8.256c1.101 0 2.132.214 3.063.637.93.422 1.74 1.008 2.411 1.744l.218.25c.565.68 1.016 1.47 1.34 2.35.365.989.55 2.067.55 3.203 0 1.134-.18 2.218-.534 3.216-.355 1.002-.87 1.886-1.528 2.632-.66.747-1.47 1.35-2.41 1.792-.942.443-2.02.669-3.206.669-1.104 0-2.13-.23-3.052-.687-.717-.353-1.314-.81-1.781-1.366v9.178h-4.263V8.699H67.4v1.747c.128-.153.27-.31.426-.465.318-.32.713-.61 1.172-.861.456-.25.978-.458 1.548-.62.576-.16 1.228-.244 1.94-.244zm21.612.443v8.624c0 .429.032.885.092 1.355.06.453.188.866.383 1.226.19.354.457.65.792.878.325.223.773.336 1.33.336.545 0 1.031-.112 1.446-.334.417-.224.763-.514 1.024-.862.264-.352.469-.768.608-1.232.14-.47.211-.95.211-1.43V8.7h4.264v15.607h-4.074V22.44c-.355.512-.836.98-1.435 1.398-.869.605-1.905.91-3.085.91-1.02 0-1.91-.182-2.643-.543-.733-.36-1.344-.843-1.816-1.437-.469-.59-.817-1.275-1.035-2.038-.216-.752-.325-1.538-.325-2.335V8.7h4.263zm19.614-.441c1.115 0 2.22.196 3.282.582 1.076.392 1.945 1.002 2.58 1.811l.14.178-2.821 2.496-.157-.205c-.314-.413-.755-.778-1.312-1.086-.55-.306-1.158-.46-1.806-.46-.57 0-1.095.12-1.564.354-.419.21-.624.552-.624 1.046 0 .495.221.82.692 1.024.54.236 1.348.48 2.403.728.568.127 1.155.3 1.744.512.598.218 1.149.51 1.637.868.497.364.907.824 1.216 1.366.315.55.473 1.222.473 1.995 0 .962-.184 1.789-.549 2.463-.363.672-.854 1.224-1.46 1.643-.6.414-1.308.718-2.1.902-.782.181-1.601.274-2.433.274-1.2 0-2.384-.223-3.522-.663-1.144-.441-2.107-1.083-2.864-1.905l-.161-.175 2.856-2.676.161.21c.397.516.923.95 1.562 1.289.633.336 1.349.507 2.125.507.254 0 .516-.029.782-.088.26-.058.502-.149.722-.274.21-.118.372-.272.499-.472.12-.19.182-.433.182-.721 0-.533-.238-.906-.73-1.138-.561-.265-1.42-.536-2.553-.803-.574-.128-1.142-.296-1.683-.498-.557-.208-1.061-.484-1.498-.824-.445-.345-.806-.78-1.073-1.292-.27-.516-.405-1.157-.405-1.908 0-.878.185-1.65.552-2.292.361-.637.848-1.168 1.443-1.576.589-.404 1.26-.706 1.997-.901.731-.194 1.494-.291 2.267-.291zM86.848 0v24.309h-4.262V0h4.262zM71.632 11.826c-.65 0-1.237.139-1.746.412-.516.279-.964.642-1.332 1.079-.367.437-.65.942-.839 1.499-.19.56-.286 1.128-.286 1.688s.096 1.122.286 1.67c.19.55.472 1.048.84 1.485.367.437.815.794 1.33 1.061.509.264 1.097.398 1.749.398.692 0 1.3-.139 1.81-.412.514-.277.945-.637 1.28-1.07.295-.382.524-.817.69-1.295.024-.069.052-.136.072-.207.172-.564.258-1.134.258-1.696 0-.56-.086-1.124-.258-1.678-.17-.547-.427-1.046-.764-1.485-.084-.107-.173-.211-.27-.309-.286-.294-.623-.542-1.007-.742-.51-.264-1.12-.398-1.813-.398zM48.718 21.978c.795 0 1.439.644 1.439 1.438 0 .794-.644 1.438-1.439 1.438-.794 0-1.438-.644-1.438-1.438 0-.794.644-1.438 1.438-1.438zm-5.662-2.399c3.293-2.963 8.32-2.961 11.618-.005l-1.372 1.584c-2.512-2.276-6.364-2.273-8.872.007zm-2.9-3.344c4.953-4.401 12.463-4.403 17.42-.006l-1.374 1.584c-4.17-3.714-10.504-3.712-14.67.008zm-2.914-3.361c6.87-6.16 16.366-6.157 23.236.01l-1.377 1.586c-5.83-5.156-14.648-5.16-20.482-.008zM16.678 17.314v7.592H9.1v-7.59l7.58-.002zm18.168.001c-.377 4.255-3.952 7.59-8.304 7.59s-7.924-3.335-8.304-7.59zM7.605 8.264v16.608C3.35 24.494.015 20.92.015 16.568s3.334-7.925 7.59-8.304zm18.937-.034c4.354 0 7.927 3.336 8.304 7.59H18.238c.378-4.254 3.95-7.59 8.304-7.59zM9.1 8.264c4.008.357 7.2 3.549 7.557 7.557H9.099z" transform="translate(-450 -14) translate(450.365 14)"/>
            </g>
        </g>
    </g>
</svg>
