<svg xmlns="http://www.w3.org/2000/svg" viewBox="0 0 136.988 12">
<path fill="#000" d="M61.145 2.655h3.265v9.039h2.79V2.655h3.265V.306h-9.32v2.349zm-6.8 4.327h4.8V4.775h-4.8V2.624h5.076V.307h-7.769v11.386h8.062V9.346h-5.37V6.981zm-12.278.627H42l-2.629-7.3H35.4v11.384h2.627l-.064-8.059h.049l2.921 8.058h1.959l3-8.058h.05l-.065 8.058h2.742V.307h-4.036zm65.1 4.084h2.807V.307h-2.807v11.386zM100.836.307h-2.808v11.386h7.272V9.3h-4.469V.307zM16.8 5.771L19.414 3.2 23.1 6.838a1.556 1.556 0 001.1.449h5.821V4.792h-5.414L20.512.754a1.573 1.573 0 00-2.2 0l-3.3 3.251-3.3-3.251a1.573 1.573 0 00-2.2 0l-4.1 4.038H0v2.494h5.825a1.556 1.556 0 001.1-.449L10.616 3.2l2.609 2.572L9.745 9.2H0v2.494h10.15a1.556 1.556 0 001.1-.448l3.765-3.711 3.765 3.711a1.556 1.556 0 001.1.449h10.146V9.2h-9.744zm63.7-.077a3 3 0 00.636-1.947 3.277 3.277 0 00-.375-1.64 3.007 3.007 0 00-1.006-1.061 4.258 4.258 0 00-1.418-.573 7.757 7.757 0 00-1.623-.167h-4.4V11.7h2.725V7.175h.951l2.504 4.525h3.265L78.74 6.819a3.476 3.476 0 001.76-1.124zM78.191 4.5a1.244 1.244 0 01-.483.418 2.279 2.279 0 01-.656.2 4.524 4.524 0 01-.705.056h-1.329V2.526h1.493a4.544 4.544 0 01.648.048 1.95 1.95 0 01.607.185 1.172 1.172 0 01.442.387 1.123 1.123 0 01.173.65 1.221 1.221 0 01-.188.708zm15.6-2.9a5.855 5.855 0 00-2-1.19 7.735 7.735 0 00-5.017 0 5.866 5.866 0 00-1.991 1.19 5.4 5.4 0 00-1.314 1.876A6.188 6.188 0 0083 5.953a6.262 6.262 0 00.475 2.469 5.609 5.609 0 001.313 1.914 5.874 5.874 0 001.991 1.23 7.47 7.47 0 005.019 0 5.863 5.863 0 002-1.23 5.617 5.617 0 001.313-1.914 6.266 6.266 0 00.475-2.469 6.193 6.193 0 00-.475-2.469A5.405 5.405 0 0093.8 1.609zm-1.44 5.775a3.29 3.29 0 01-.685 1.118 3.179 3.179 0 01-1.045.732 3.508 3.508 0 01-2.677 0 3.085 3.085 0 01-1.037-.732 3.359 3.359 0 01-.677-1.118 4.213 4.213 0 01-.009-2.806 3.125 3.125 0 01.677-1.1 3.237 3.237 0 011.045-.723 3.286 3.286 0 011.339-.266 3.345 3.345 0 011.347.266 3.125 3.125 0 011.045.723 3.3 3.3 0 01.679 1.1 3.859 3.859 0 01.247 1.382 4.017 4.017 0 01-.247 1.424zm28.521.363h-.049L116.188.306h-3.182v11.387h2.709l-.065-7.447h.05l4.65 7.447h3.166V.307h-2.709zm11.939-2.059l3.655-5.372h-3.247L131.1 3.846 128.945.307h-3.362L129.3 5.68l-4.049 6.013h3.329l2.432-4.021 2.529 4.021h3.445z"></path>
</svg>