<svg xmlns="http://www.w3.org/2000/svg" width="37" height="36" viewBox="0 0 37 36">
    <g fill="none" fill-rule="evenodd">
        <g fill="#FFF">
            <g>
                <g>
                    <g>
                        <path d="M28.883 12.61c.36 8-5.606 16.92-16.165 16.92-3.211 0-6.201-.943-8.718-2.557 3.017.356 6.028-.48 8.42-2.355-2.489-.046-4.589-1.689-5.313-3.95.89.171 1.768.12 2.569-.098-2.735-.547-4.625-3.013-4.563-5.646.768.425 1.645.68 2.577.71-2.533-1.692-3.25-5.036-1.76-7.593 2.806 3.441 6.995 5.706 11.723 5.942C16.824 10.425 19.52 7 23.193 7c1.636 0 3.113.691 4.15 1.796 1.296-.256 2.512-.729 3.613-1.38-.426 1.327-1.328 2.443-2.501 3.146 1.15-.137 2.246-.443 3.266-.896-.762 1.142-1.727 2.144-2.838 2.945" transform="translate(-515 -2057) translate(0 2045) translate(423.635 12) translate(92)"/>
                    </g>
                </g>
            </g>
        </g>
    </g>
</svg>
