<svg xmlns="http://www.w3.org/2000/svg" width="37" height="36" viewBox="0 0 37 36">
    <g fill="none" fill-rule="evenodd">
        <g fill="#FFF">
            <g>
                <g>
                    <g>
                        <path d="M18 6c3.192 0 6.093 1.246 8.243 3.279l-.268-.246c.111.1.221.2.329.304.178.17.35.347.518.528l.05.055c.07.076.137.152.204.23l.044.05c.074.087.147.174.218.263l.03.036C29.014 12.553 30 15.162 30 18c0 2.846-.99 5.46-2.646 7.518l.013.016c-.422.527-.888 1.017-1.392 1.466l-.015-.02C23.842 28.86 21.054 30 18 30c-3.054 0-5.842-1.14-7.96-3.02l-.015.02c-.504-.449-.97-.94-1.392-1.468l.012-.015C6.991 23.46 6 20.846 6 18c0-3.112 1.185-5.948 3.128-8.08l.052-.057c.078-.085.158-.169.239-.252l.092-.092c.06-.06.12-.12.182-.179l.064-.06C11.907 7.245 14.807 6 18 6zm-1 17.082c-1.054.105-2.06.374-2.993.78.75 1.972 1.838 3.38 2.993 3.908zm2 0v4.687c1.156-.529 2.244-1.936 2.993-3.906-.932-.407-1.938-.676-2.992-.78zm-6.748 1.768l-.24.173c-.209.157-.411.322-.607.494.56.491 1.173.92 1.832 1.278-.367-.586-.698-1.237-.985-1.945zm11.497 0l-.036.085c-.279.675-.598 1.298-.95 1.86.659-.358 1.273-.787 1.832-1.278-.27-.238-.552-.46-.846-.668zM27.95 19h-2.975c-.066 1.371-.267 2.677-.58 3.88.554.347 1.076.74 1.564 1.173 1.09-1.43 1.803-3.165 1.99-5.053zM11.024 19H8.049c.188 1.888.9 3.622 1.99 5.053.488-.432 1.01-.825 1.564-1.174-.313-1.202-.513-2.508-.58-3.88zM17 18.999h-3.974c.056 1.04.196 2.026.403 2.937 1.116-.462 2.316-.758 3.571-.862V19zm5.974.001H19l.001 2.074c1.255.104 2.454.4 3.57.86.207-.909.347-1.894.403-2.934zm-.397-4.906l-.083.036c-1.093.442-2.267.728-3.493.829L19 17h3.974c-.055-1.028-.193-2.003-.397-2.906zm3.397-2.129l-.01.01c-.487.433-1.008.826-1.56 1.175.309 1.193.507 2.49.572 3.85h2.975c-.187-1.88-.895-3.607-1.977-5.035zm-15.95.001l-.032.044C8.929 13.43 8.234 15.14 8.049 17h2.975c.066-1.36.263-2.656.572-3.85-.556-.35-1.082-.747-1.571-1.183zm3.398 2.13l-.004.018c-.201.897-.337 1.865-.392 2.886L17 16.999v-2.04c-1.258-.104-2.46-.402-3.578-.863zm.608-2.018l-.034.088c.936.41 1.946.68 3.005.785V8.23c-1.144.522-2.223 1.908-2.971 3.847zM19 8.231v4.72c1.06-.106 2.069-.376 3.004-.785-.75-1.985-1.843-3.404-3.003-3.935zm-5.763.975l-.133.072c-.616.347-1.191.757-1.718 1.221.272.241.558.467.855.677.29-.718.624-1.378.996-1.97zm9.526-.001l.122.2c.323.54.616 1.132.873 1.77.298-.209.584-.435.857-.675-.565-.498-1.185-.933-1.852-1.295z" transform="translate(-561 -2057) translate(0 2045) translate(423.635 12) translate(138)"/>
                    </g>
                </g>
            </g>
        </g>
    </g>
</svg>
